<?xml version="1.0" encoding="UTF-8"?> <svg xmlns="http://www.w3.org/2000/svg" id="Слой_1" data-name="Слой 1" viewBox="0 0 803.39 222.1"> <defs> <style>.cls-1{stroke:#000;stroke-miterlimit:10;}</style> </defs> <title>созвездие 1 svg</title> <circle class="cls-1" cx="251.61" cy="937.03" r="8.16" transform="translate(-829.52 318.71) rotate(-88.26)"></circle> <circle class="cls-1" cx="406.06" cy="852.02" r="10.21" transform="translate(-594.8 390.66) rotate(-88.26)"></circle> <circle class="cls-1" cx="484.88" cy="883.14" r="8.35" transform="translate(-549.49 499.61) rotate(-88.26)"></circle> <circle class="cls-1" cx="577.81" cy="965.29" r="10.15" transform="translate(-541.48 672.15) rotate(-88.26)"></circle> <circle class="cls-1" cx="799.45" cy="863.45" r="9.66" transform="translate(-224.8 794.95) rotate(-88.26)"></circle> <circle class="cls-1" cx="929.58" cy="986.19" r="10.19" transform="translate(-221.31 1044.02) rotate(-88.26)"></circle> <circle class="cls-1" cx="147.5" cy="1052.78" r="10.13" transform="translate(-1046.15 326.87) rotate(-88.26)"></circle> <polygon class="cls-1" points="9.98 210.88 114.32 94.96 269.12 9.75 269.5 9.9 348.14 40.95 662.89 21.24 663.17 21.5 793.3 144.24 792.1 145.51 662.25 23.03 347.86 42.71 347.68 42.64 269.24 11.67 115.29 96.41 11.28 212.06 9.98 210.88"></polygon> <polygon class="cls-1" points="347.42 42.48 348.58 41.18 441.52 123.32 440.36 124.62 347.42 42.48"></polygon> </svg> 