<svg xmlns="http://www.w3.org/2000/svg" viewBox="0 0 503.37 1000"><path fill="none" stroke="#000" stroke-width="8.7568" d="M251.432 995.598h.49H65.954c-3.511-13.429 70.62-32.176 90.23-42.316 67.584-34.949 75.705-55.658 76.953-196.223 1.308-147.298-6.486-180.302-46.677-197.64C51.894 501.375-9.885 400.657 7.13 267.063 13.2 219.396 68.022 23.73 79.993 4.36h343.372c11.971 19.37 66.793 215.04 72.863 262.704 17.013 133.594-44.766 234.314-179.33 292.354-40.19 17.336-47.985 50.338-46.677 197.641 1.248 140.564 9.37 161.274 76.953 196.223 19.609 10.14 93.741 28.887 90.23 42.316H251.436z"/><path d="M5.235 286.56c-8.804 123.9 53.293 217.685 181.222 272.862 40.19 17.338 47.982 50.329 46.674 197.623-1.248 140.564-9.363 161.274-76.947 196.223-19.61 10.14-93.75 28.884-90.238 42.313H437.409c3.511-13.43-70.627-32.173-90.239-42.313-67.583-34.949-75.699-55.66-76.947-196.223-1.307-147.307 6.485-180.293 46.675-197.623 127.972-55.194 190.057-148.97 181.213-272.88H5.217z"/></svg>
