<svg xmlns="http://www.w3.org/2000/svg" xml:space="preserve" viewBox="0 0 2200 2200"><path d="M1834.439 425.099c-82.512-130.491-228.353-191.213-378.982-181.949-46.283 2.355-92.424 10.564-136.389 25.474-153.574 51.156-261.965 183.929-311.224 334.275-15.285-69.663-49.824-135.304-106.846-179.953-61.688-49.733-141.524-74.268-220.317-73.41-224.315-.415-399.27 219.464-388.035 436.325 9.059 274.31 165.285 536.94 382.386 699.046 73.882 53.505 156.803 95.774 245.809 116.531 19.264 3.933 29.289-21.398 12.751-31.722-91.17-53.958-175.336-119.23-248.536-195.484-129.029-132.057-219.86-303.703-245.64-486.443-5.457-38.302-7.857-76.792-7.365-115.402 2.006-105.924 63.022-213.386 156.495-264.381 90.041-48.797 216.433-38.735 291.302 34.699 57.625 57.554 80.676 136.339 99.42 215.691-.57 20.336 27.949 24.639 33.227 4.746 5.04-22.059 11.762-43.86 19.627-65.123 36.684-97.376 96.767-190.073 179.139-252.649 66.08-50.764 148.314-77.261 231.329-76.127 58.034-.11 119.189 12.1 166.051 38.843 105.203 57.508 143.578 178.004 137.087 292.291-2.254 46.765-7.752 93.088-17.33 138.612-19.083 91.217-55.756 176.371-109.078 253.379-129.559 185.21-338.444 330.557-481.433 512.264-59.048 72.466-112.818 151.406-141.32 241.32-9.616 29.963-17.148 60.79-19.928 92.247-1.198 17.473 19.303 25.772 30.957 14.237 8.968-8.994 18.966-20.757 27.177-29.966 45.426-52.751 97.365-117.078 142.01-170.454 54.981-66.013 117.121-125.3 182.032-181.764 162.424-140.767 346.018-270.596 450.443-465.517 63.406-115.567 93.974-247.326 97.946-378.409 4.719-104.501-15.289-211.806-72.765-301.227z"/></svg>
