<svg xmlns="http://www.w3.org/2000/svg" xml:space="preserve" width="800" height="800" viewBox="0 0 472.34 472.339"><path d="M291.921 59.379 268.16 0h46.715l36.05 59.385-59.004-.006zm-15.983 0L252.177 0H220.17l-23.754 59.385 79.522-.006zm-39.766 141.427 40.542-126.578h-81.092l40.55 126.578zM204.178 0h-46.714l-36.041 59.385h58.995L204.178 0zm121.608 102.422 22.775-28.188h-56.253l-36.957 115.361 52.033-64.395c60.602 27.198 102.848 88 102.848 158.743 0 96.131-77.934 174.062-174.061 174.062-96.138 0-174.066-77.932-174.066-174.062 0-70.732 42.202-131.572 102.792-158.804l52.084 64.46-36.95-115.366H123.78l22.75 28.156C83.465 134.917 40.312 200.633 40.312 276.483c0 108.165 87.686 195.856 195.859 195.856 108.178 0 195.855-87.691 195.855-195.856.006-75.86-43.164-141.554-106.24-174.061z"/></svg>
